<?xml version="1.0" encoding="UTF-8"?>
<svg id="Layer_2" data-name="Layer 2" xmlns="http://www.w3.org/2000/svg" xmlns:xlink="http://www.w3.org/1999/xlink" viewBox="0 0 686.18 334.44">
  <defs>
    <style>
      .cls-1 {
        fill: none;
        stroke: url(#linear-gradient);
        stroke-linecap: round;
        stroke-miterlimit: 10;
        stroke-width: 1.77px;
      }

      .cls-2 {
        fill: url(#linear-gradient-3);
      }

      .cls-2, .cls-3 {
        stroke-width: 0px;
      }

      .cls-3 {
        fill: url(#linear-gradient-2);
        opacity: .19;
      }
    </style>
    <linearGradient id="linear-gradient" x1="197.62" y1="417.81" x2="486.97" y2="-83.36" gradientUnits="userSpaceOnUse">
      <stop offset="0" stop-color="#e7427e"/>
      <stop offset=".09" stop-color="#de4681"/>
      <stop offset=".24" stop-color="#c7548a"/>
      <stop offset=".43" stop-color="#a16a99"/>
      <stop offset=".65" stop-color="#6c89ae"/>
      <stop offset=".89" stop-color="#29b0c8"/>
      <stop offset="1" stop-color="#08c4d6"/>
    </linearGradient>
    <linearGradient id="linear-gradient-2" x1="198.1" y1="416.98" x2="486.5" y2="-82.54" xlink:href="#linear-gradient"/>
    <linearGradient id="linear-gradient-3" x1="190.76" y1="431.38" x2="496.08" y2="-97.44" gradientUnits="userSpaceOnUse">
      <stop offset="0" stop-color="#d5182e"/>
      <stop offset=".1" stop-color="#cc1f34"/>
      <stop offset=".26" stop-color="#b53248"/>
      <stop offset=".46" stop-color="#8f5267"/>
      <stop offset=".69" stop-color="#5a7e92"/>
      <stop offset=".94" stop-color="#17b6c9"/>
      <stop offset="1" stop-color="#08c4d6"/>
    </linearGradient>
  </defs>
  <g id="index">
    <g>
      <path class="cls-1" d="M648.18,323.63H36.42c-10.07-10.07-15.72-15.72-25.79-25.79V36.6c10.07-10.07,15.72-15.72,25.79-25.79h611.76c10.07,10.07,15.72,15.72,25.79,25.79v261.24c-10.07,10.07-15.72,15.72-25.79,25.79Z"/>
      <path class="cls-3" d="M648.18,323.63H36.42c-10.07-10.07-15.72-15.72-25.79-25.79V36.6c10.07-10.07,15.72-15.72,25.79-25.79h611.76c10.07,10.07,15.72,15.72,25.79,25.79v261.24c-10.07,10.07-15.72,15.72-25.79,25.79Z"/>
      <path class="cls-2" d="M112.3,333.95H22L.66,311.56v-143.31l1.76,2.61v139.93l20.3,21.31h88.33l1.25,1.85ZM308.55.49H22L.66,22.89v55.83l1.76,1.85V23.65L22.73,2.34h284.07l1.76-1.85ZM559.94,0h-22.01l-1.76,1.85h22.01l1.76-1.85ZM522.44,0h-22.01l-1.76,1.85h22.01l1.76-1.85ZM483.44,0h-22.01l-1.76,1.85h22.01l1.76-1.85ZM443.69,0h-22.01l-1.76,1.85h22.01l1.76-1.85ZM599.78,0h-20.03l-1.76,1.85h20.03l1.76-1.85ZM664.84,0h-45.25l-1.76,1.85h46.28l20.3,21.31v287.14l-20.3,21.31h-366.43l1.76,1.85h365.4l21.34-22.39V22.39l-21.34-22.39ZM1.87,152.1c-1.03,0-1.87.88-1.87,1.96s.84,1.96,1.87,1.96,1.87-.88,1.87-1.96-.84-1.96-1.87-1.96ZM1.87,139.4c-1.03,0-1.87.88-1.87,1.96s.84,1.96,1.87,1.96,1.87-.88,1.87-1.96-.84-1.96-1.87-1.96ZM1.87,129.46c-1.03,0-1.87.88-1.87,1.96s.84,1.96,1.87,1.96,1.87-.88,1.87-1.96-.84-1.96-1.87-1.96ZM263.82,332.48c0-1.08-.84-1.96-1.87-1.96s-1.87.88-1.87,1.96.84,1.96,1.87,1.96,1.87-.88,1.87-1.96ZM275.93,332.48c0-1.08-.84-1.96-1.87-1.96s-1.87.88-1.87,1.96.84,1.96,1.87,1.96,1.87-.88,1.87-1.96ZM285.39,332.48c0-1.08-.84-1.96-1.87-1.96s-1.87.88-1.87,1.96.84,1.96,1.87,1.96,1.87-.88,1.87-1.96Z"/>
    </g>
  </g>
</svg>