<?xml version="1.0" encoding="UTF-8"?>
<svg id="Layer_2" data-name="Layer 2" xmlns="http://www.w3.org/2000/svg" viewBox="0 0 1284.88 458.14">
  <defs>
    <style>
      .cls-1 {
        stroke-width: 2.06px;
      }

      .cls-1, .cls-2, .cls-3, .cls-4 {
        fill: none;
        stroke: #08c4d6;
        stroke-miterlimit: 10;
      }

      .cls-5 {
        fill: #08c4d6;
        stroke-width: 0px;
      }

      .cls-2 {
        stroke-width: 2px;
      }

      .cls-3 {
        stroke-width: 2.37px;
      }

      .cls-4 {
        stroke-width: 3.38px;
      }
    </style>
  </defs>
  <g id="index">
    <g>
      <g>
        <line class="cls-2" x1="480.3" y1="149.68" x2="529.69" y2="149.68"/>
        <path class="cls-5" d="M529.49,153.74c2.24,0,4.06-1.82,4.06-4.06s-1.82-4.06-4.06-4.06-4.06,1.82-4.06,4.06,1.82,4.06,4.06,4.06Z"/>
      </g>
      <g>
        <line class="cls-3" x1="776.3" y1="453.33" x2="706.19" y2="453.33"/>
        <path class="cls-5" d="M706.43,448.53c-2.66,0-4.81,2.15-4.81,4.81s2.15,4.81,4.81,4.81,4.81-2.15,4.81-4.81-2.15-4.81-4.81-4.81Z"/>
      </g>
      <g>
        <polyline class="cls-3" points="1051 103.62 963.78 103.62 943.5 123.9 943.5 167.92"/>
        <path class="cls-5" d="M938.69,167.68c0,2.66,2.15,4.81,4.81,4.81s4.81-2.15,4.81-4.81-2.15-4.81-4.81-4.81-4.81,2.15-4.81,4.81Z"/>
      </g>
      <polyline class="cls-3" points="1051 55.6 1013.41 55.6 980.77 22.96 980.56 .01"/>
      <polyline class="cls-4" points="126.8 442.34 48.58 442.34 25.31 419.06 0 419.06"/>
      <polyline class="cls-4" points="126.8 424.17 48.58 424.17 25.31 400.89 25.62 301.26"/>
      <polyline class="cls-3" points="1145.75 192.22 1145.75 227.47 1170.87 252.59 1282.38 252.59"/>
      <polyline class="cls-1" points="1050.75 309.46 1050.75 288.3 1073.09 265.96 1284.88 265.96"/>
      <polyline class="cls-1" points="1038.88 309.46 1038.88 287.71 1074.47 252.11 1117.22 252.11 1132.88 227.98 1132.88 192.22"/>
      <polyline class="cls-1" points="1157.1 192.22 1157.1 222.41 1174.14 239.45 1282.38 239.45"/>
      <line class="cls-1" x1="314.54" y1="332.21" x2="314.54" y2="289.71"/>
      <g>
        <polyline class="cls-3" points="324.65 332.21 324.65 314.21 335.61 303.25 546.57 303.25"/>
        <path class="cls-5" d="M546.37,307.26c2.21,0,4.01-1.79,4.01-4.01s-1.79-4.01-4.01-4.01-4.01,1.79-4.01,4.01,1.79,4.01,4.01,4.01Z"/>
      </g>
      <g>
        <polyline class="cls-3" points="1051 79.21 1015.78 79.21 986.37 49.8 718.52 49.8"/>
        <path class="cls-5" d="M718.74,45.43c-2.41,0-4.36,1.95-4.36,4.36s1.95,4.36,4.36,4.36,4.36-1.95,4.36-4.36-1.95-4.36-4.36-4.36Z"/>
      </g>
    </g>
  </g>
</svg>