<?xml version="1.0" encoding="UTF-8"?>
<svg id="Layer_2" data-name="Layer 2" xmlns="http://www.w3.org/2000/svg" xmlns:xlink="http://www.w3.org/1999/xlink" viewBox="0 0 397.2 193.59">
  <defs>
    <style>
      .cls-1 {
        fill: none;
        stroke: url(#linear-gradient);
        stroke-linecap: round;
        stroke-miterlimit: 10;
        stroke-width: 1.03px;
      }

      .cls-2 {
        fill: url(#linear-gradient-3);
      }

      .cls-2, .cls-3 {
        stroke-width: 0px;
      }

      .cls-3 {
        fill: url(#linear-gradient-2);
        opacity: .19;
      }
    </style>
    <linearGradient id="linear-gradient" x1="114.39" y1="241.85" x2="281.88" y2="-48.25" gradientUnits="userSpaceOnUse">
      <stop offset="0" stop-color="#e7427e"/>
      <stop offset=".09" stop-color="#de4681"/>
      <stop offset=".24" stop-color="#c7548a"/>
      <stop offset=".43" stop-color="#a16a99"/>
      <stop offset=".65" stop-color="#6c89ae"/>
      <stop offset=".89" stop-color="#29b0c8"/>
      <stop offset="1" stop-color="#08c4d6"/>
    </linearGradient>
    <linearGradient id="linear-gradient-2" x1="114.67" y1="241.37" x2="281.61" y2="-47.78" xlink:href="#linear-gradient"/>
    <linearGradient id="linear-gradient-3" x1="110.42" y1="249.71" x2="287.15" y2="-56.4" gradientUnits="userSpaceOnUse">
      <stop offset="0" stop-color="#d5182e"/>
      <stop offset=".1" stop-color="#cc1f34"/>
      <stop offset=".26" stop-color="#b53248"/>
      <stop offset=".46" stop-color="#8f5267"/>
      <stop offset=".69" stop-color="#5a7e92"/>
      <stop offset=".94" stop-color="#17b6c9"/>
      <stop offset="1" stop-color="#08c4d6"/>
    </linearGradient>
  </defs>
  <g id="index">
    <g>
      <path class="cls-1" d="M375.2,187.34H21.08c-5.83-5.83-9.1-9.1-14.93-14.93V21.19c5.83-5.83,9.1-9.1,14.93-14.93h354.12c5.83,5.83,9.1,9.1,14.93,14.93v151.22c-5.83,5.83-9.1,9.1-14.93,14.93Z"/>
      <path class="cls-3" d="M375.2,187.34H21.08c-5.83-5.83-9.1-9.1-14.93-14.93V21.19c5.83-5.83,9.1-9.1,14.93-14.93h354.12c5.83,5.83,9.1,9.1,14.93,14.93v151.22c-5.83,5.83-9.1,9.1-14.93,14.93Z"/>
      <path class="cls-2" d="M65.01,193.31H12.73L.38,180.34v-82.96l1.02,1.51v81l11.75,12.33h51.13l.72,1.07ZM178.61.29H12.73L.38,13.25v32.32l1.02,1.07V13.69L13.16,1.36h164.43l1.02-1.07ZM324.12,0h-12.74l-1.02,1.07h12.74l1.02-1.07ZM302.42,0h-12.74l-1.02,1.07h12.74l1.02-1.07ZM279.84,0h-12.74l-1.02,1.07h12.74l1.02-1.07ZM256.83,0h-12.74l-1.02,1.07h12.74l1.02-1.07ZM347.18,0h-11.59l-1.02,1.07h11.59l1.02-1.07ZM384.84,0h-26.19l-1.02,1.07h26.79l11.75,12.33v166.21l-11.75,12.33h-212.11l1.02,1.07h211.51l12.35-12.96V12.96l-12.35-12.96ZM1.08,88.04c-.6,0-1.08.51-1.08,1.14s.48,1.14,1.08,1.14,1.08-.51,1.08-1.14-.48-1.14-1.08-1.14ZM1.08,80.69c-.6,0-1.08.51-1.08,1.14s.48,1.14,1.08,1.14,1.08-.51,1.08-1.14-.48-1.14-1.08-1.14ZM1.08,74.94c-.6,0-1.08.51-1.08,1.14s.48,1.14,1.08,1.14,1.08-.51,1.08-1.14-.48-1.14-1.08-1.14ZM152.71,192.46c0-.63-.48-1.14-1.08-1.14s-1.08.51-1.08,1.14.48,1.14,1.08,1.14,1.08-.51,1.08-1.14ZM159.72,192.46c0-.63-.48-1.14-1.08-1.14s-1.08.51-1.08,1.14.48,1.14,1.08,1.14,1.08-.51,1.08-1.14ZM165.2,192.46c0-.63-.48-1.14-1.08-1.14s-1.08.51-1.08,1.14.48,1.14,1.08,1.14,1.08-.51,1.08-1.14Z"/>
    </g>
  </g>
</svg>