<?xml version="1.0" encoding="UTF-8"?>
<svg id="Layer_2" data-name="Layer 2" xmlns="http://www.w3.org/2000/svg" xmlns:xlink="http://www.w3.org/1999/xlink" viewBox="0 0 344.86 425.51">
  <defs>
    <style>
      .cls-1 {
        fill: none;
        stroke: url(#linear-gradient-3);
        stroke-linecap: round;
        stroke-miterlimit: 10;
        stroke-width: 1.22px;
      }

      .cls-2 {
        fill: url(#linear-gradient-2);
      }

      .cls-2, .cls-3 {
        stroke-width: 0px;
      }

      .cls-3 {
        fill: url(#linear-gradient);
        opacity: .19;
      }
    </style>
    <linearGradient id="linear-gradient" x1="47.04" y1="428.4" x2="296.83" y2="-4.24" gradientUnits="userSpaceOnUse">
      <stop offset="0" stop-color="#e7427e"/>
      <stop offset=".2" stop-color="#e53d75"/>
      <stop offset=".51" stop-color="#df315e"/>
      <stop offset=".9" stop-color="#d71d38"/>
      <stop offset="1" stop-color="#d5182e"/>
    </linearGradient>
    <linearGradient id="linear-gradient-2" x1="42.84" y1="437.31" x2="302.65" y2="-12.69" gradientUnits="userSpaceOnUse">
      <stop offset="0" stop-color="#d5182e"/>
      <stop offset=".1" stop-color="#cc1f34"/>
      <stop offset=".26" stop-color="#b53248"/>
      <stop offset=".46" stop-color="#8f5267"/>
      <stop offset=".69" stop-color="#5a7e92"/>
      <stop offset=".94" stop-color="#17b6c9"/>
      <stop offset="1" stop-color="#08c4d6"/>
    </linearGradient>
    <linearGradient id="linear-gradient-3" x1="46.72" y1="428.97" x2="297.16" y2="-4.81" xlink:href="#linear-gradient"/>
  </defs>
  <g id="Layer_7" data-name="Layer 7">
    <g>
      <path class="cls-3" d="M317.83,7.88H26.05c-6.92,6.92-10.8,10.8-17.72,17.72v372.95c6.92,6.92,10.8,10.8,17.72,17.72h79.08l32.25-25.06,75.24-.87,26.53,25.93h78.68c6.92-6.92,10.8-10.8,17.72-17.72V25.6c-6.92-6.92-10.8-10.8-17.72-17.72Z"/>
      <path class="cls-2" d="M101.22,424.62H20.85L.63,404.39V142.67l1.67,2.36v258.67l19.25,19.25h78.5l1.18,1.67ZM95.27,0H20.85L.63,20.23v41.58l1.67,1.67V20.92L21.54,1.67h72.06l1.67-1.67ZM225.2,0h-20.86l-1.67,1.67h20.86l1.67-1.67ZM262.97,0h-18.99l-1.67,1.67h18.99l1.67-1.67ZM324.64,0h-42.89l-1.67,1.67h43.87l19.25,19.25v382.79l-19.25,19.25h-55.9l1.67,1.67h54.92l20.23-20.23V20.23L324.64,0ZM1.77,128.09c-.98,0-1.77.79-1.77,1.77s.79,1.77,1.77,1.77,1.77-.79,1.77-1.77-.79-1.77-1.77-1.77ZM1.77,116.61c-.98,0-1.77.79-1.77,1.77s.79,1.77,1.77,1.77,1.77-.79,1.77-1.77-.79-1.77-1.77-1.77ZM1.77,107.64c-.98,0-1.77.79-1.77,1.77s.79,1.77,1.77,1.77,1.77-.79,1.77-1.77-.79-1.77-1.77-1.77ZM233.59,423.74c0-.98-.79-1.77-1.77-1.77s-1.77.79-1.77,1.77.79,1.77,1.77,1.77,1.77-.79,1.77-1.77ZM245.06,423.74c0-.98-.79-1.77-1.77-1.77s-1.77.79-1.77,1.77.79,1.77,1.77,1.77,1.77-.79,1.77-1.77ZM254.04,423.74c0-.98-.79-1.77-1.77-1.77s-1.77.79-1.77,1.77.79,1.77,1.77,1.77,1.77-.79,1.77-1.77Z"/>
      <path class="cls-1" d="M317.83,7.88H26.05c-6.92,6.92-10.8,10.8-17.72,17.72v372.95c6.92,6.92,10.8,10.8,17.72,17.72h79.08l32.25-24.76,75.24-.87,26.53,25.63h78.68c6.92-6.92,10.8-10.8,17.72-17.72V25.6c-6.92-6.92-10.8-10.8-17.72-17.72Z"/>
    </g>
  </g>
</svg>